# xmcd CD database file
#
# Track frame offsets:
#	150
#	13736
#	32566
#	49376
#	74121
#	92258
#	108102
#	132532
#	146780
#	163274
#	183237
#	198336
#
# Disc length: 2783 seconds
#
# Revision: 0
# Processed by: cddbd v1.5.2PL0 Copyright (c) Steve Scherf et al.
# Submitted via: CDex 1.70beta3
#
DISCID=ad0add0c
DTITLE=Joscho Stephan Trio Meeets Matthias Strucken  - Gypsy Vibes
DYEAR=2016
DGENRE=Jazz
TTITLE0=It Dont Mean A Thing 
TTITLE1=Things Are Getting Better
TTITLE2=Linea Blanca
TTITLE3=Seul Ce Soir
TTITLE4=Four Brothers
TTITLE5=Swingende Liebeserklarung
TTITLE6=Night And Day
TTITLE7=Brazen Waltz
TTITLE8=Bags Groove
TTITLE9=September Song
TTITLE10=Three Little Words
TTITLE11=Django
EXTD=YEAR: 2016
EXTT0=
EXTT1=
EXTT2=
EXTT3=
EXTT4=
EXTT5=
EXTT6=
EXTT7=
EXTT8=
EXTT9=
EXTT10=
EXTT11=
PLAYORDER=
